<svg id="图层_1" data-name="图层 1" xmlns="http://www.w3.org/2000/svg" xmlns:xlink="http://www.w3.org/1999/xlink" viewBox="0 0 262 91"><defs><style>.cls-1{fill:url(#linear-gradient);}</style><linearGradient id="linear-gradient" x1="9.63" y1="45.71" x2="249.37" y2="45.71" gradientUnits="userSpaceOnUse"><stop offset="0" stop-color="#70d5fa"/><stop offset="1" stop-color="#d626fb"/></linearGradient></defs><path d="M21.31,66.81a23.5,23.5,0,0,1-8.58-8.9,25.65,25.65,0,0,1,0-24.45,23.62,23.62,0,0,1,8.55-8.89,22.82,22.82,0,0,1,12.09-3.3,22.35,22.35,0,0,1,9.31,1.95,23.14,23.14,0,0,1,7.59,5.54,2.54,2.54,0,0,1,.89,2A2.66,2.66,0,0,1,50,32.66l-1.15,1a3.41,3.41,0,0,1-2,.64,3.07,3.07,0,0,1-1.92-1,16.62,16.62,0,0,0-5.12-3.93,14.51,14.51,0,0,0-6.34-1.31,16.39,16.39,0,0,0-8.64,2.27,15.85,15.85,0,0,0-5.92,6.3,18.93,18.93,0,0,0-2.14,9,19.21,19.21,0,0,0,2.11,9.08,15.66,15.66,0,0,0,5.92,6.31,16.64,16.64,0,0,0,8.67,2.27V70.1A22.91,22.91,0,0,1,21.31,66.81Zm25.47-9.54a3,3,0,0,1,2,.67l1.21,1a2.51,2.51,0,0,1,1.25,1.86,2.32,2.32,0,0,1-.93,2,24.71,24.71,0,0,1-7.61,5.35,22.33,22.33,0,0,1-9.35,2,22.82,22.82,0,0,1-12.09-3.29,23.57,23.57,0,0,1-8.55-8.9,25.65,25.65,0,0,1,0-24.45,23.55,23.55,0,0,1,8.58-8.89,22.92,22.92,0,0,1,12.06-3.3v6.79a16.39,16.39,0,0,0-8.64,2.27,15.85,15.85,0,0,0-5.92,6.3,18.93,18.93,0,0,0-2.14,9,19.21,19.21,0,0,0,2.11,9.08,15.66,15.66,0,0,0,5.92,6.31,16.64,16.64,0,0,0,8.67,2.27A15.42,15.42,0,0,0,39.74,62a15.1,15.1,0,0,0,5.09-3.78A3.7,3.7,0,0,1,46.78,57.27Z"/><path d="M65.6,67.71a17.91,17.91,0,0,1-6.44-6.47,17.57,17.57,0,0,1,0-17.66,17.81,17.81,0,0,1,6.46-6.44,17.7,17.7,0,0,1,17.66,0,17.6,17.6,0,0,1,6.44,6.44,17.7,17.7,0,0,1,0,17.66,17.91,17.91,0,0,1-6.44,6.47,17.62,17.62,0,0,1-17.72,0ZM80,62.33a9.65,9.65,0,0,0,3.74-4,13.83,13.83,0,0,0,0-11.75,9.69,9.69,0,0,0-3.74-4,11.49,11.49,0,0,0-11.14,0,9.69,9.69,0,0,0-3.74,4,12.68,12.68,0,0,0-1.31,5.89,12.49,12.49,0,0,0,1.34,5.86,10,10,0,0,0,3.74,4,10.57,10.57,0,0,0,5.54,1.44A10.73,10.73,0,0,0,80,62.33Z"/><path d="M100.7,47.06a21.35,21.35,0,0,1,5.28-8,15.59,15.59,0,0,1,7.9-4,2.4,2.4,0,0,1,2.05.48,2.47,2.47,0,0,1,.77,2v1.41a2.7,2.7,0,0,1-.61,1.89,2.92,2.92,0,0,1-1.82.86,9.84,9.84,0,0,0-4.67,1.7A8.64,8.64,0,0,0,106.68,47a14.89,14.89,0,0,0-1,5.79l-6.85,4.61A28.47,28.47,0,0,1,100.7,47.06ZM105,68.7a2.68,2.68,0,0,1-2,.7h-1.4a2.47,2.47,0,0,1-2.76-2.75V38.23a2.47,2.47,0,0,1,2.76-2.75H103a2.72,2.72,0,0,1,2,.7,2.79,2.79,0,0,1,.7,2V66.65A2.79,2.79,0,0,1,105,68.7Z"/><path d="M153.37,53.11a4,4,0,0,1-3,1.12h-2.31a17.92,17.92,0,0,0-1.38-7.52A9.41,9.41,0,0,0,143,42.36,10.44,10.44,0,0,0,137.56,41a12.65,12.65,0,0,0-6.08,1.35,9,9,0,0,0-3.8,3.9,13.29,13.29,0,0,0-1.32,6.15,13.62,13.62,0,0,0,1.32,6.24,8.74,8.74,0,0,0,3.93,3.93,14,14,0,0,0,6.47,1.35,10,10,0,0,0,4.57-1.09,10.83,10.83,0,0,0,3.68-3.07,4.23,4.23,0,0,1,1.79-.93,2.39,2.39,0,0,1,1.8.48l1.21.77a2.54,2.54,0,0,1,1.28,1.76,2.17,2.17,0,0,1-.83,1.89,17.49,17.49,0,0,1-6.11,4.7,17.25,17.25,0,0,1-7.39,1.69,19.45,19.45,0,0,1-9.64-2.3,16.39,16.39,0,0,1-6.4-6.34,18.18,18.18,0,0,1-2.27-9.08A18.08,18.08,0,0,1,122,43.32a16.26,16.26,0,0,1,6.34-6.27,18.43,18.43,0,0,1,9.18-2.27,17,17,0,0,1,7.56,1.72A15.52,15.52,0,0,1,151,41.69a18.71,18.71,0,0,1,3,8.38A3.2,3.2,0,0,1,153.37,53.11Zm-4,1.12H124.19V48.6h25.15Z"/><path d="M160.32,61.46a2.41,2.41,0,0,1,1.63-1.4l1.41-.39a2,2,0,0,1,1.76-.09,9.58,9.58,0,0,1,1.76,1.18,7.65,7.65,0,0,0,3.74,2.75,8.72,8.72,0,0,0,4.74.35,7.35,7.35,0,0,0,4.06-2.27A4,4,0,0,0,180.57,59a3.28,3.28,0,0,0-1-2.53,5.77,5.77,0,0,0-3.27-1.41l-6-.83a9.87,9.87,0,0,1-6.4-3.26,9.28,9.28,0,0,1,0-12.16,10.91,10.91,0,0,1,6.33-3.75,13.78,13.78,0,0,1,7.17.58,16.58,16.58,0,0,1,5.95,3.55,2,2,0,0,1-.19,3.59l-1.21.64a2.29,2.29,0,0,1-1.8.54,5.9,5.9,0,0,1-2-.93,7.83,7.83,0,0,0-2.94-1.76,6.51,6.51,0,0,0-3.36-.19,5.65,5.65,0,0,0-3,1.82,3.71,3.71,0,0,0-1,2.31,3.26,3.26,0,0,0,.76,2.3,3.86,3.86,0,0,0,2.56,1.28l6,.83a11.12,11.12,0,0,1,7.2,3.49,9.39,9.39,0,0,1,2.4,6.47,9.53,9.53,0,0,1-2.44,6.3,12.62,12.62,0,0,1-7.58,4,16.87,16.87,0,0,1-9.09-1,14,14,0,0,1-6.81-5.41A2.07,2.07,0,0,1,160.32,61.46Z"/><path d="M212.25,36.12a2.52,2.52,0,0,1,.64,1.86v1.34a2.62,2.62,0,0,1-.64,1.89,2.41,2.41,0,0,1-1.85.67H192.29a2.47,2.47,0,0,1-1.83-.67,2.55,2.55,0,0,1-.67-1.89V38a2.45,2.45,0,0,1,.67-1.86,2.54,2.54,0,0,1,1.83-.64H210.4A2.48,2.48,0,0,1,212.25,36.12Zm0,27.33a2.49,2.49,0,0,1,.64,1.85v1.41a2.68,2.68,0,0,1-.7,2,2.5,2.5,0,0,1-2,.64q-7.05-.59-10.31-3.88t-3.26-9.18V27.42a2.47,2.47,0,0,1,2.75-2.76h1.41a2.48,2.48,0,0,1,2.75,2.76V55.26a11.06,11.06,0,0,0,.61,4,4.39,4.39,0,0,0,2.08,2.33,10,10,0,0,0,4,1A3.34,3.34,0,0,1,212.25,63.45Z"/><path d="M243.16,36.18a2.83,2.83,0,0,1,2.05-.7h1.41a2.46,2.46,0,0,1,2.75,2.75V52.89a19.79,19.79,0,0,1-2,9,14.61,14.61,0,0,1-5.5,6.08,15.09,15.09,0,0,1-8,2.17,14.06,14.06,0,0,1-7.9-2.2,14.21,14.21,0,0,1-5.15-6.12A21,21,0,0,1,219,52.89V38.23a2.46,2.46,0,0,1,2.75-2.75h1.41a2.72,2.72,0,0,1,2,.7,2.79,2.79,0,0,1,.7,2V52.89a16.81,16.81,0,0,0,.9,6,6.82,6.82,0,0,0,2.66,3.46,8.08,8.08,0,0,0,4.44,1.12,9,9,0,0,0,4.68-1.15,7.17,7.17,0,0,0,2.91-3.52,15.32,15.32,0,0,0,1-5.89V38.23A2.79,2.79,0,0,1,243.16,36.18Z"/><path class="cls-1" d="M21.31,66.81a23.5,23.5,0,0,1-8.58-8.9,25.65,25.65,0,0,1,0-24.45,23.62,23.62,0,0,1,8.55-8.89,22.82,22.82,0,0,1,12.09-3.3,22.35,22.35,0,0,1,9.31,1.95,23.14,23.14,0,0,1,7.59,5.54,2.54,2.54,0,0,1,.89,2A2.66,2.66,0,0,1,50,32.66l-1.15,1a3.41,3.41,0,0,1-2,.64,3.07,3.07,0,0,1-1.92-1,16.62,16.62,0,0,0-5.12-3.93,14.51,14.51,0,0,0-6.34-1.31,16.39,16.39,0,0,0-8.64,2.27,15.85,15.85,0,0,0-5.92,6.3,18.93,18.93,0,0,0-2.14,9,19.21,19.21,0,0,0,2.11,9.08,15.66,15.66,0,0,0,5.92,6.31,16.64,16.64,0,0,0,8.67,2.27V70.1A22.91,22.91,0,0,1,21.31,66.81Zm25.47-9.54a3,3,0,0,1,2,.67l1.21,1a2.51,2.51,0,0,1,1.25,1.86,2.32,2.32,0,0,1-.93,2,24.71,24.71,0,0,1-7.61,5.35,22.33,22.33,0,0,1-9.35,2,22.82,22.82,0,0,1-12.09-3.29,23.57,23.57,0,0,1-8.55-8.9,25.65,25.65,0,0,1,0-24.45,23.55,23.55,0,0,1,8.58-8.89,22.92,22.92,0,0,1,12.06-3.3v6.79a16.39,16.39,0,0,0-8.64,2.27,15.85,15.85,0,0,0-5.92,6.3,18.93,18.93,0,0,0-2.14,9,19.21,19.21,0,0,0,2.11,9.08,15.66,15.66,0,0,0,5.92,6.31,16.64,16.64,0,0,0,8.67,2.27A15.42,15.42,0,0,0,39.74,62a15.1,15.1,0,0,0,5.09-3.78A3.7,3.7,0,0,1,46.78,57.27Z"/><path class="cls-1" d="M65.6,67.71a17.91,17.91,0,0,1-6.44-6.47,17.57,17.57,0,0,1,0-17.66,17.81,17.81,0,0,1,6.46-6.44,17.7,17.7,0,0,1,17.66,0,17.6,17.6,0,0,1,6.44,6.44,17.7,17.7,0,0,1,0,17.66,17.91,17.91,0,0,1-6.44,6.47,17.62,17.62,0,0,1-17.72,0ZM80,62.33a9.65,9.65,0,0,0,3.74-4,13.83,13.83,0,0,0,0-11.75,9.69,9.69,0,0,0-3.74-4,11.49,11.49,0,0,0-11.14,0,9.69,9.69,0,0,0-3.74,4,12.68,12.68,0,0,0-1.31,5.89,12.49,12.49,0,0,0,1.34,5.86,10,10,0,0,0,3.74,4,10.57,10.57,0,0,0,5.54,1.44A10.73,10.73,0,0,0,80,62.33Z"/><path class="cls-1" d="M100.7,47.06a21.35,21.35,0,0,1,5.28-8,15.59,15.59,0,0,1,7.9-4,2.4,2.4,0,0,1,2.05.48,2.47,2.47,0,0,1,.77,2v1.41a2.7,2.7,0,0,1-.61,1.89,2.92,2.92,0,0,1-1.82.86,9.84,9.84,0,0,0-4.67,1.7A8.64,8.64,0,0,0,106.68,47a14.89,14.89,0,0,0-1,5.79l-6.85,4.61A28.47,28.47,0,0,1,100.7,47.06ZM105,68.7a2.68,2.68,0,0,1-2,.7h-1.4a2.47,2.47,0,0,1-2.76-2.75V38.23a2.47,2.47,0,0,1,2.76-2.75H103a2.72,2.72,0,0,1,2,.7,2.79,2.79,0,0,1,.7,2V66.65A2.79,2.79,0,0,1,105,68.7Z"/><path class="cls-1" d="M153.37,53.11a4,4,0,0,1-3,1.12h-2.31a17.92,17.92,0,0,0-1.38-7.52A9.41,9.41,0,0,0,143,42.36,10.44,10.44,0,0,0,137.56,41a12.65,12.65,0,0,0-6.08,1.35,9,9,0,0,0-3.8,3.9,13.29,13.29,0,0,0-1.32,6.15,13.62,13.62,0,0,0,1.32,6.24,8.74,8.74,0,0,0,3.93,3.93,14,14,0,0,0,6.47,1.35,10,10,0,0,0,4.57-1.09,10.83,10.83,0,0,0,3.68-3.07,4.23,4.23,0,0,1,1.79-.93,2.39,2.39,0,0,1,1.8.48l1.21.77a2.54,2.54,0,0,1,1.28,1.76,2.17,2.17,0,0,1-.83,1.89,17.49,17.49,0,0,1-6.11,4.7,17.25,17.25,0,0,1-7.39,1.69,19.45,19.45,0,0,1-9.64-2.3,16.39,16.39,0,0,1-6.4-6.34,18.18,18.18,0,0,1-2.27-9.08A18.08,18.08,0,0,1,122,43.32a16.26,16.26,0,0,1,6.34-6.27,18.43,18.43,0,0,1,9.18-2.27,17,17,0,0,1,7.56,1.72A15.52,15.52,0,0,1,151,41.69a18.71,18.71,0,0,1,3,8.38A3.2,3.2,0,0,1,153.37,53.11Zm-4,1.12H124.19V48.6h25.15Z"/><path class="cls-1" d="M160.32,61.46a2.41,2.41,0,0,1,1.63-1.4l1.41-.39a2,2,0,0,1,1.76-.09,9.58,9.58,0,0,1,1.76,1.18,7.65,7.65,0,0,0,3.74,2.75,8.72,8.72,0,0,0,4.74.35,7.35,7.35,0,0,0,4.06-2.27A4,4,0,0,0,180.57,59a3.28,3.28,0,0,0-1-2.53,5.77,5.77,0,0,0-3.27-1.41l-6-.83a9.87,9.87,0,0,1-6.4-3.26,9.28,9.28,0,0,1,0-12.16,10.91,10.91,0,0,1,6.33-3.75,13.78,13.78,0,0,1,7.17.58,16.58,16.58,0,0,1,5.95,3.55,2,2,0,0,1-.19,3.59l-1.21.64a2.29,2.29,0,0,1-1.8.54,5.9,5.9,0,0,1-2-.93,7.83,7.83,0,0,0-2.94-1.76,6.51,6.51,0,0,0-3.36-.19,5.65,5.65,0,0,0-3,1.82,3.71,3.71,0,0,0-1,2.31,3.26,3.26,0,0,0,.76,2.3,3.86,3.86,0,0,0,2.56,1.28l6,.83a11.12,11.12,0,0,1,7.2,3.49,9.39,9.39,0,0,1,2.4,6.47,9.53,9.53,0,0,1-2.44,6.3,12.62,12.62,0,0,1-7.58,4,16.87,16.87,0,0,1-9.09-1,14,14,0,0,1-6.81-5.41A2.07,2.07,0,0,1,160.32,61.46Z"/><path class="cls-1" d="M212.25,36.12a2.52,2.52,0,0,1,.64,1.86v1.34a2.62,2.62,0,0,1-.64,1.89,2.41,2.41,0,0,1-1.85.67H192.29a2.47,2.47,0,0,1-1.83-.67,2.55,2.55,0,0,1-.67-1.89V38a2.45,2.45,0,0,1,.67-1.86,2.54,2.54,0,0,1,1.83-.64H210.4A2.48,2.48,0,0,1,212.25,36.12Zm0,27.33a2.49,2.49,0,0,1,.64,1.85v1.41a2.68,2.68,0,0,1-.7,2,2.5,2.5,0,0,1-2,.64q-7.05-.59-10.31-3.88t-3.26-9.18V27.42a2.47,2.47,0,0,1,2.75-2.76h1.41a2.48,2.48,0,0,1,2.75,2.76V55.26a11.06,11.06,0,0,0,.61,4,4.39,4.39,0,0,0,2.08,2.33,10,10,0,0,0,4,1A3.34,3.34,0,0,1,212.25,63.45Z"/><path class="cls-1" d="M243.16,36.18a2.83,2.83,0,0,1,2.05-.7h1.41a2.46,2.46,0,0,1,2.75,2.75V52.89a19.79,19.79,0,0,1-2,9,14.61,14.61,0,0,1-5.5,6.08,15.09,15.09,0,0,1-8,2.17,14.06,14.06,0,0,1-7.9-2.2,14.21,14.21,0,0,1-5.15-6.12A21,21,0,0,1,219,52.89V38.23a2.46,2.46,0,0,1,2.75-2.75h1.41a2.72,2.72,0,0,1,2,.7,2.79,2.79,0,0,1,.7,2V52.89a16.81,16.81,0,0,0,.9,6,6.82,6.82,0,0,0,2.66,3.46,8.08,8.08,0,0,0,4.44,1.12,9,9,0,0,0,4.68-1.15,7.17,7.17,0,0,0,2.91-3.52,15.32,15.32,0,0,0,1-5.89V38.23A2.79,2.79,0,0,1,243.16,36.18Z"/></svg>